<svg id="Layer_1_copy" data-name="Layer 1 copy" xmlns="http://www.w3.org/2000/svg" viewBox="0 0 359.03 322.31"><defs><style>.cls-1{fill:#fff;}.cls-2,.cls-6{fill:#91c9c6;}.cls-2{opacity:0.5;}.cls-3{fill:#f0f0f2;}.cls-4{fill:#3080ed;}.cls-5{fill:#040504;}.cls-7{fill:#44776d;}</style></defs><title>mapbig</title><rect class="cls-1" width="359.03" height="322.31"/><rect class="cls-2" y="182.83" width="359.03" height="3"/><rect class="cls-3" width="117.92" height="88.1"/><rect class="cls-3" x="124.15" width="117.92" height="88.1"/><rect class="cls-3" x="246.64" width="112.4" height="88.1"/><rect class="cls-3" y="93.13" width="117.92" height="88.1"/><rect class="cls-3" x="124.15" y="93.13" width="117.92" height="88.1"/><rect class="cls-3" x="246.64" y="93.13" width="112.4" height="88.1"/><rect class="cls-3" y="186.69" width="117.92" height="88.1"/><rect class="cls-3" x="124.15" y="186.69" width="117.92" height="88.1"/><rect class="cls-3" x="246.64" y="186.69" width="112.4" height="88.1"/><rect class="cls-3" y="280.25" width="117.92" height="42.06"/><rect class="cls-3" x="124.15" y="280.25" width="117.92" height="42.06"/><rect class="cls-3" x="246.64" y="280.25" width="112.4" height="42.06"/><path class="cls-4" d="M533.66,197.52a11,11,0,0,0-8.84,1.55c-4,2.77-5,7.57-3.56,12,1.91,5.81,5.57,10.56,9.62,15.34,4.34-5.28,8.52-10.41,10-17a10,10,0,0,0-2.89-9.5A9.75,9.75,0,0,0,533.66,197.52Zm-2.86,13.4a3.62,3.62,0,1,1,3.63-3.51A3.66,3.66,0,0,1,530.8,210.92Z" transform="translate(-216.48 52.43)"/><path class="cls-5" d="M287.32,131.09,287,131a2.63,2.63,0,0,1-1.95-2.11,2.55,2.55,0,0,1,.5-2.08,2.61,2.61,0,1,1,2.34,4.24.05.05,0,0,0,0,0Z" transform="translate(-216.48 52.43)"/><path class="cls-5" d="M291.07,129.54c0-.16.06-.32.08-.48a4,4,0,0,0-.19-2,3.38,3.38,0,0,0-1.55-1.72,4,4,0,0,0-1.52-.53,3.17,3.17,0,0,0-1.91.4,3.86,3.86,0,0,0-1.64,1.66,3.4,3.4,0,0,0-.34,1.41,5.17,5.17,0,0,0,.13,1.24s0,.05,0,.07l-17.16,0,.09-.53a3.67,3.67,0,0,0-.29-2.21,3.55,3.55,0,0,0-1.29-1.4,3.7,3.7,0,0,0-1.54-.61,3.12,3.12,0,0,0-1.78.26,3.75,3.75,0,0,0-1.69,1.36A3.31,3.31,0,0,0,260,128a6,6,0,0,0,.07,1.52.34.34,0,0,0,0,.09h-.39c-.35,0-.7,0-1.05,0a1.37,1.37,0,0,1-1.23-1.1,1.47,1.47,0,0,1,0-.36q0-4.7,0-9.39c0-.73,0-1.46,0-2.2,0-.53,0-1.07,0-1.6a2.35,2.35,0,0,1,.67-1.81,2.27,2.27,0,0,1,1.34-.63,4.44,4.44,0,0,1,.63,0l19.59,0,9.64,0a3.68,3.68,0,0,1,1.75.4,3.15,3.15,0,0,1,1.36,1.5,10.36,10.36,0,0,1,.56,1.71,30.75,30.75,0,0,1,.62,3.15,32.24,32.24,0,0,1,.3,3.24c0,.89.06,1.77.05,2.65s-.08,2-.12,3a1.49,1.49,0,0,1-.28.89,1.24,1.24,0,0,1-.93.55C292,129.56,291.54,129.54,291.07,129.54ZM285,114v.14c0,2,0,3.95,0,5.93a.48.48,0,0,0,.2.41c.54.42,1.09.83,1.64,1.24a1,1,0,0,0,.6.21h4.62c0-.26,0-.51,0-.76a31.2,31.2,0,0,0-.5-3.62,17.56,17.56,0,0,0-.58-2.27,1.73,1.73,0,0,0-1.7-1.28c-.39,0-.78,0-1.17,0H285Zm-9.88,6v-6h-7.55l0,6ZM266.05,114h-.12l-6.21,0h-.31a.55.55,0,0,0-.54.52,2.46,2.46,0,0,0,0,.26c0,1.64,0,3.27,0,4.91,0,.11,0,.22,0,.34h7.18Zm10.58,6.06h6.84v-6h-6.84Z" transform="translate(-216.48 52.43)"/><path class="cls-5" d="M260.88,128.5a2.6,2.6,0,1,1,2.55,2.6A2.61,2.61,0,0,1,260.88,128.5Z" transform="translate(-216.48 52.43)"/><path class="cls-1" d="M285,114h3.08c.39,0,.78,0,1.17,0a1.73,1.73,0,0,1,1.7,1.28,17.56,17.56,0,0,1,.58,2.27,31.2,31.2,0,0,1,.5,3.62c0,.25,0,.5,0,.76h-4.62a1,1,0,0,1-.6-.21c-.55-.41-1.1-.82-1.64-1.24a.48.48,0,0,1-.2-.41c0-2,0-4,0-5.93Z" transform="translate(-216.48 52.43)"/><path class="cls-1" d="M275.12,120.08l-7.54,0,0-6h7.55Z" transform="translate(-216.48 52.43)"/><path class="cls-1" d="M266.05,114v6h-7.18c0-.12,0-.23,0-.34,0-1.64,0-3.27,0-4.91a2.46,2.46,0,0,1,0-.26.55.55,0,0,1,.54-.52h.31l6.21,0Z" transform="translate(-216.48 52.43)"/><path class="cls-1" d="M276.63,120.07v-6h6.84v6Z" transform="translate(-216.48 52.43)"/><path class="cls-5" d="M509.15,40.32l.37-.07a2.62,2.62,0,0,0,2-2.07,2.57,2.57,0,0,0-.47-2.09,2.63,2.63,0,0,0-3.88-.3,2.6,2.6,0,0,0,.23,4,2.5,2.5,0,0,0,1.24.53l0,0Z" transform="translate(-216.48 52.43)"/><path class="cls-5" d="M504,38.69a1.26,1.26,0,0,1-.92-.57,1.58,1.58,0,0,1-.26-.9c0-1-.07-2-.07-3s0-1.77.09-2.65a29.43,29.43,0,0,1,.35-3.24,26.61,26.61,0,0,1,.67-3.14,9.47,9.47,0,0,1,.58-1.7A3.1,3.1,0,0,1,505.83,22a3.68,3.68,0,0,1,1.76-.38l9.63.17,19.59.33c.21,0,.42,0,.63.05a2.27,2.27,0,0,1,1.33.65,2.39,2.39,0,0,1,.65,1.82c0,.53,0,1.07-.06,1.6,0,.74,0,1.47,0,2.2-.06,3.13-.11,6.26-.17,9.39a1.47,1.47,0,0,1,0,.36,1.37,1.37,0,0,1-1.25,1.08c-.35,0-.7,0-1,0h-.39a.34.34,0,0,0,0-.09,6.45,6.45,0,0,0,.1-1.52,3.34,3.34,0,0,0-.5-1.56,3.74,3.74,0,0,0-1.66-1.39,3.21,3.21,0,0,0-1.78-.28,3.8,3.8,0,0,0-1.55.58,3.64,3.64,0,0,0-1.31,1.39,3.81,3.81,0,0,0-.32,2.21c0,.17.06.34.09.52l-17.17-.3s0,0,0-.06a5.27,5.27,0,0,0,.14-1.25,3.27,3.27,0,0,0-.32-1.41,3.79,3.79,0,0,0-1.61-1.68,3.15,3.15,0,0,0-1.9-.43,3.78,3.78,0,0,0-1.53.5,3.36,3.36,0,0,0-1.58,1.7,4,4,0,0,0-.22,2c0,.17,0,.33.08.49C505,38.71,504.48,38.72,504,38.69Zm7.38-15.39-1.13,0-1.61,0c-.39,0-.78,0-1.17,0a1.76,1.76,0,0,0-1.72,1.26,19.34,19.34,0,0,0-.62,2.26,31.46,31.46,0,0,0-.55,3.61c0,.25,0,.5,0,.76h.11c1.09,0,2.17.05,3.26.06h1.25a1,1,0,0,0,.6-.2l1.67-1.22a.49.49,0,0,0,.2-.4q0-3,.1-5.94v-.13Zm17.67,6.33.1-6-7.54-.13-.11,6Zm1.51,0,7.18.12c0-.12,0-.23,0-.35,0-1.63.05-3.27.08-4.9a2.26,2.26,0,0,0,0-.26.54.54,0,0,0-.54-.53l-.3,0-6.21-.11h-.12Zm-10.46-6.14-6.84-.12-.1,6,6.84.12Z" transform="translate(-216.48 52.43)"/><path class="cls-5" d="M535.63,38.13a2.61,2.61,0,1,0-5.21,0,2.61,2.61,0,0,0,5.21,0Z" transform="translate(-216.48 52.43)"/><path class="cls-1" d="M511.73,23.31h-.34l-1.13,0-1.61,0c-.39,0-.78,0-1.17,0a1.76,1.76,0,0,0-1.72,1.26,19.34,19.34,0,0,0-.62,2.26,31.46,31.46,0,0,0-.55,3.61c0,.25,0,.5,0,.76h.11c1.09,0,2.17.05,3.26.06h1.25a1,1,0,0,0,.6-.2l1.67-1.22a.49.49,0,0,0,.2-.4q0-3,.1-5.94Z" transform="translate(-216.48 52.43)"/><path class="cls-1" d="M521.51,29.5l7.55.13.1-6-7.54-.13Z" transform="translate(-216.48 52.43)"/><path class="cls-1" d="M530.68,23.57l-.11,6.05,7.18.12c0-.12,0-.23,0-.35,0-1.63.05-3.27.08-4.9a2.26,2.26,0,0,0,0-.26.54.54,0,0,0-.54-.53l-.3,0-6.21-.11Z" transform="translate(-216.48 52.43)"/><path class="cls-1" d="M520,29.47l.1-6-6.84-.12-.1,6Z" transform="translate(-216.48 52.43)"/><g id="Layer_1-2" data-name="Layer 1-2"><circle class="cls-5" cx="58.64" cy="140.42" r="17.76"/><path class="cls-1" d="M275.12,104.13A16.14,16.14,0,0,0,291.26,88H259A16.14,16.14,0,0,0,275.12,104.13Z" transform="translate(-216.48 52.43)"/></g><polygon class="cls-5" points="55.54 157.56 61.74 157.56 58.64 163.1 55.54 157.56"/><path class="cls-6" d="M274,77.44a4.53,4.53,0,0,0-.79,0,3.16,3.16,0,0,0-2.71,2.78h0a2.37,2.37,0,0,1,4.23,1.61,2.61,2.61,0,0,1-2.59,2.75c-1.66,0-2.75-1.29-2.75-3.32a4.9,4.9,0,0,1,1.31-3.51,4.26,4.26,0,0,1,2.5-1.16,6.42,6.42,0,0,1,.77-.06Zm-.3,4.49a1.58,1.58,0,0,0-1.61-1.78,1.72,1.72,0,0,0-1.51,1,.89.89,0,0,0-.12.46c0,1.29.61,2.24,1.71,2.24C273.05,83.81,273.66,83.05,273.66,81.93Z" transform="translate(-216.48 52.43)"/><path class="cls-6" d="M280.84,80.51c0,2.65-1,4.11-2.71,4.11-1.52,0-2.55-1.43-2.57-4s1.12-4.06,2.71-4.06S280.84,78,280.84,80.51Zm-4.23.12c0,2,.62,3.18,1.58,3.18s1.6-1.26,1.6-3.25-.49-3.18-1.58-3.18C277.28,77.38,276.61,78.5,276.61,80.63Z" transform="translate(-216.48 52.43)"/><path class="cls-7" d="M266.8,96.46a2.44,2.44,0,0,0,1.19.34c.94,0,1.24-.6,1.23-1,0-.75-.69-1.08-1.4-1.08h-.41v-.55h.41c.53,0,1.21-.27,1.21-.91,0-.43-.28-.81-.95-.81a2,2,0,0,0-1.08.35l-.19-.53a2.54,2.54,0,0,1,1.41-.42c1.06,0,1.55.64,1.55,1.29a1.36,1.36,0,0,1-1,1.28h0a1.41,1.41,0,0,1,1.2,1.39c0,.87-.67,1.62-2,1.62a2.78,2.78,0,0,1-1.4-.36Z" transform="translate(-216.48 52.43)"/><path class="cls-7" d="M271.12,94.37c0-.42,0-.76,0-1.09h.65l0,.64h0a1.4,1.4,0,0,1,1.27-.73,1.19,1.19,0,0,1,1.14.8h0a1.8,1.8,0,0,1,.45-.52,1.34,1.34,0,0,1,.89-.28c.53,0,1.32.34,1.32,1.74V97.3h-.71V95c0-.77-.28-1.24-.87-1.24a1,1,0,0,0-.87.67,1.29,1.29,0,0,0-.06.36V97.3h-.71V94.89c0-.64-.28-1.11-.84-1.11a1,1,0,0,0-.91.74,1,1,0,0,0-.06.35V97.3h-.71Z" transform="translate(-216.48 52.43)"/><path class="cls-7" d="M278.86,92.15a.42.42,0,0,1-.46.44.43.43,0,0,1-.44-.44.45.45,0,0,1,.46-.46A.43.43,0,0,1,278.86,92.15Zm-.81,5.15v-4h.73v4Z" transform="translate(-216.48 52.43)"/><path class="cls-7" d="M280,94.37c0-.42,0-.76,0-1.09h.65l0,.66h0a1.47,1.47,0,0,1,1.33-.75c.56,0,1.42.33,1.42,1.71v2.4h-.73V95c0-.65-.24-1.19-.93-1.19a1,1,0,0,0-1,.75.9.9,0,0,0,0,.34V97.3H280Z" transform="translate(-216.48 52.43)"/><g id="Layer_1-2-2" data-name="Layer 1-2"><circle class="cls-5" cx="189.67" cy="157.21" r="17.76"/><circle class="cls-6" cx="189.67" cy="157.21" r="16.14"/></g><rect class="cls-5" x="187.73" y="174.08" width="3.88" height="7.08"/><path class="cls-1" d="M402.56,95.8h6l3.45.67,2.53,4.4V111a53.66,53.66,0,0,1-5.48,1c-.59-.08-8,0-8,0s-2.74-1.36-2.82-1.35a47.22,47.22,0,0,1-.58-5.89c.08-.66,1.25-4.57,1.25-4.82S402.56,95.8,402.56,95.8Z" transform="translate(-216.48 52.43)"/><polygon class="cls-5" points="300.94 66.5 307.14 66.5 304.04 72.04 300.94 66.5"/><g id="Layer_1-2-3" data-name="Layer 1-2"><circle class="cls-5" cx="304.61" cy="49.54" r="17.76"/><path class="cls-1" d="M521.09,13.25A16.14,16.14,0,0,0,537.23-2.89H505A16.14,16.14,0,0,0,521.09,13.25Z" transform="translate(-216.48 52.43)"/></g><path class="cls-6" d="M514.2-12.61h0l-1.35.73-.21-.8,1.71-.91h.9v7.8h-1Z" transform="translate(-216.48 52.43)"/><path class="cls-6" d="M518.06-5.79v-.65l.83-.81c2-1.89,2.89-2.9,2.9-4.07a1.39,1.39,0,0,0-1.55-1.53,2.66,2.66,0,0,0-1.65.66l-.34-.74a3.41,3.41,0,0,1,2.21-.79,2.19,2.19,0,0,1,2.39,2.26c0,1.44-1.05,2.61-2.69,4.19l-.62.58v0H523v.88Z" transform="translate(-216.48 52.43)"/><path class="cls-6" d="M527.48-5.79V-7.92h-3.62v-.69l3.47-5h1.14v4.84h1.1v.83h-1.1v2.13Zm0-3v-2.6c0-.41,0-.81,0-1.22h0c-.24.45-.43.79-.65,1.15l-1.91,2.65v0Z" transform="translate(-216.48 52.43)"/><path class="cls-7" d="M515.82,1.36a2.74,2.74,0,0,0-.55,0,2.2,2.2,0,0,0-1.88,1.92h0a1.65,1.65,0,0,1,2.93,1.12,1.81,1.81,0,0,1-1.79,1.91c-1.16,0-1.92-.9-1.92-2.3a3.41,3.41,0,0,1,.92-2.44,2.94,2.94,0,0,1,1.73-.8,4,4,0,0,1,.53,0Zm-.21,3.12a1.09,1.09,0,0,0-1.11-1.24,1.21,1.21,0,0,0-1,.66.64.64,0,0,0-.08.33c0,.89.42,1.54,1.19,1.54S515.61,5.25,515.61,4.48Z" transform="translate(-216.48 52.43)"/><path class="cls-7" d="M517.23,3.31c0-.41,0-.75,0-1.09h.64l0,.65h0a1.39,1.39,0,0,1,1.26-.74,1.18,1.18,0,0,1,1.14.81h0a1.58,1.58,0,0,1,.45-.53,1.37,1.37,0,0,1,.89-.28c.53,0,1.32.35,1.32,1.75V6.25h-.72V4c0-.77-.28-1.24-.87-1.24a1,1,0,0,0-.87.67,1.3,1.3,0,0,0,0,.36V6.25h-.72V3.84c0-.64-.28-1.11-.84-1.11a1,1,0,0,0-.9.73.85.85,0,0,0-.06.36V6.25h-.72Z" transform="translate(-216.48 52.43)"/><path class="cls-7" d="M525,1.09a.46.46,0,0,1-.91,0,.45.45,0,0,1,.46-.46A.44.44,0,0,1,525,1.09Zm-.82,5.16v-4h.74v4Z" transform="translate(-216.48 52.43)"/><path class="cls-7" d="M526.11,3.31c0-.41,0-.75,0-1.09h.65l0,.67h0a1.49,1.49,0,0,1,1.33-.76c.56,0,1.42.33,1.42,1.71V6.25h-.73V3.93c0-.65-.24-1.19-.93-1.19a1,1,0,0,0-1,.75,1.11,1.11,0,0,0,0,.34V6.25h-.73Z" transform="translate(-216.48 52.43)"/><path d="M415.65,99.55h-.33v-2c0-1.83-4.06-3.27-9.16-3.27S397,95.75,397,97.58v2h-.32a1,1,0,0,0-1,1v3.27a1,1,0,0,0,1,1H397v6.55a1.31,1.31,0,0,0,1.31,1.31V114a1.31,1.31,0,0,0,1.31,1.3h1.31a1.3,1.3,0,0,0,1.31-1.3v-1.31h7.85V114a1.31,1.31,0,0,0,1.31,1.3h1.31A1.3,1.3,0,0,0,414,114v-1.31h.26a1,1,0,0,0,1.05-1v-6.81h.33a1,1,0,0,0,1-1v-3.27A1,1,0,0,0,415.65,99.55Zm-13.42-2.29a.33.33,0,0,1,.33-.33h7.2a.32.32,0,0,1,.32.33v.65a.32.32,0,0,1-.32.33h-7.2a.33.33,0,0,1-.33-.33Zm-2,13.41a1.31,1.31,0,1,1,1.31-1.31A1.3,1.3,0,0,1,400.27,110.67Zm5.23-4.58h-4.58a1.31,1.31,0,0,1-1.31-1.31v-3.92a1.31,1.31,0,0,1,1.31-1.31h4.58Zm1.31,0V99.55h4.58a1.3,1.3,0,0,1,1.31,1.31v3.92a1.3,1.3,0,0,1-1.31,1.31Zm5.24,4.58a1.31,1.31,0,1,1,1.31-1.31A1.3,1.3,0,0,1,412.05,110.67Z" transform="translate(-216.48 52.43)"/><path class="cls-4" d="M530.88,227.93h-.53a1.51,1.51,0,0,1-1.47-1.54,1.48,1.48,0,0,1,1.54-1.46h.5a1.5,1.5,0,0,1,1.46,1.54A1.49,1.49,0,0,1,530.88,227.93Z" transform="translate(-216.48 52.43)"/><path class="cls-4" d="M522.66,227.73h0l-1,0a1.51,1.51,0,0,1-1.47-1.54,1.48,1.48,0,0,1,1.54-1.46l1,0a1.5,1.5,0,0,1,0,3Zm-8.69-.22h0l-1,0a1.51,1.51,0,0,1-1.46-1.54,1.47,1.47,0,0,1,1.54-1.46l1,0a1.5,1.5,0,0,1,0,3Zm-8.69-.22h0l-1,0a1.5,1.5,0,0,1,.08-3l1,0a1.5,1.5,0,0,1,0,3Zm-8.69-.22h0l-1,0a1.5,1.5,0,0,1,.08-3l1,0a1.5,1.5,0,0,1,0,3Zm-8.69-.22h0l-1,0a1.5,1.5,0,0,1,.08-3l1,0a1.5,1.5,0,0,1,0,3Zm-8.69-.22h0l-1,0a1.5,1.5,0,0,1,.08-3l1,0a1.5,1.5,0,0,1,0,3Zm-8.69-.22h0l-1,0a1.5,1.5,0,0,1,.08-3l1,0a1.5,1.5,0,0,1,0,3Z" transform="translate(-216.48 52.43)"/><path class="cls-4" d="M461.83,226.19h-.54a1.51,1.51,0,0,1-1.46-1.5v-.5a1.5,1.5,0,0,1,1.49-1.5h0a1.49,1.49,0,0,1,1.29.73,1.5,1.5,0,0,1-.78,2.78Z" transform="translate(-216.48 52.43)"/><path class="cls-4" d="M461.26,217.43a1.51,1.51,0,0,1-1.5-1.49v-1a1.49,1.49,0,0,1,1.48-1.51h0a1.5,1.5,0,0,1,1.5,1.48v1a1.5,1.5,0,0,1-1.48,1.51Zm-.06-9.28a1.5,1.5,0,0,1-1.5-1.49v-1a1.5,1.5,0,1,1,3,0v1a1.51,1.51,0,0,1-1.49,1.52Zm-.07-9.29a1.5,1.5,0,0,1-1.5-1.48v-1a1.51,1.51,0,0,1,1.49-1.51h0a1.5,1.5,0,0,1,1.5,1.49v1a1.49,1.49,0,0,1-1.49,1.51Zm-.07-9.28a1.5,1.5,0,0,1-1.5-1.49v-1a1.5,1.5,0,0,1,1.48-1.51,1.51,1.51,0,0,1,1.52,1.49v1a1.49,1.49,0,0,1-1.48,1.51ZM461,180.3a1.49,1.49,0,0,1-1.5-1.49v-1a1.5,1.5,0,0,1,1.49-1.51h0a1.51,1.51,0,0,1,1.5,1.49v1A1.5,1.5,0,0,1,461,180.3Zm-.07-9.28a1.5,1.5,0,0,1-1.5-1.49v-1a1.5,1.5,0,0,1,3,0v1a1.49,1.49,0,0,1-1.49,1.51Zm-.07-9.28a1.5,1.5,0,0,1-1.5-1.49v-1a1.49,1.49,0,0,1,1.49-1.51h0a1.5,1.5,0,0,1,1.5,1.49v1a1.5,1.5,0,0,1-1.49,1.51Zm-.06-9.28a1.5,1.5,0,0,1-1.5-1.49v-1a1.49,1.49,0,0,1,1.49-1.51,1.47,1.47,0,0,1,1.51,1.49v1a1.5,1.5,0,0,1-1.49,1.51Zm-.07-9.28a1.51,1.51,0,0,1-1.5-1.49v-1a1.5,1.5,0,0,1,1.49-1.51h0a1.49,1.49,0,0,1,1.5,1.49v1a1.5,1.5,0,0,1-1.49,1.51Z" transform="translate(-216.48 52.43)"/><path class="cls-4" d="M460.67,133.9a1.77,1.77,0,1,1-.51-3.5h.5a1.5,1.5,0,0,1,1.5,1.49v.5a1.52,1.52,0,0,1-1.49,1.51Z" transform="translate(-216.48 52.43)"/><path class="cls-4" d="M452.18,133.4h-1a1.5,1.5,0,0,1,0-3h1a1.5,1.5,0,0,1,0,3Zm-9,0h-1a1.5,1.5,0,0,1,0-3h1a1.5,1.5,0,0,1,0,3Zm-9,0h-1a1.5,1.5,0,0,1,0-3h1a1.5,1.5,0,0,1,0,3Zm-9,0h-1a1.5,1.5,0,0,1,0-3h1a1.5,1.5,0,0,1,0,3Zm-9,0h-1a1.5,1.5,0,0,1,0-3h1a1.5,1.5,0,0,1,0,3Z" transform="translate(-216.48 52.43)"/><path class="cls-4" d="M407.31,133.4h-.5a1.5,1.5,0,0,1,0-3h.5a1.5,1.5,0,0,1,0,3Z" transform="translate(-216.48 52.43)"/><path class="cls-4" d="M472.78,218.69v-.47l.6-.59c1.43-1.38,2.08-2.12,2.08-3a1,1,0,0,0-1.13-1.1,2,2,0,0,0-1.2.49l-.25-.54a2.49,2.49,0,0,1,1.6-.58,1.58,1.58,0,0,1,1.74,1.63c0,1-.74,1.89-1.92,3.05l-.45.42h2.54v.63Z" transform="translate(-216.48 52.43)"/><path class="cls-4" d="M479.31,215.57c0-.43,0-.79,0-1.14h.67l0,.67h0a1.48,1.48,0,0,1,1.32-.78,1.25,1.25,0,0,1,1.2.84h0a1.87,1.87,0,0,1,.46-.56,1.44,1.44,0,0,1,.93-.3c.56,0,1.39.36,1.4,1.82v2.48h-.74l0-2.38c0-.81-.31-1.29-.92-1.29a1,1,0,0,0-.9.7,1.18,1.18,0,0,0-.06.39l0,2.6H482l0-2.52c0-.67-.3-1.16-.89-1.15a1.05,1.05,0,0,0-.94.77,1.1,1.1,0,0,0-.06.37l0,2.54h-.75Z" transform="translate(-216.48 52.43)"/><path class="cls-4" d="M487.41,213.19a.45.45,0,0,1-.49.47.45.45,0,0,1-.46-.46.47.47,0,0,1,.47-.49A.47.47,0,0,1,487.41,213.19Zm-.82,5.4,0-4.21h.77l0,4.21Z" transform="translate(-216.48 52.43)"/><path class="cls-4" d="M488.61,215.5c0-.43,0-.79-.05-1.14h.68l.05.69h0a1.55,1.55,0,0,1,1.38-.8c.59,0,1.49.34,1.5,1.78l0,2.52h-.76l0-2.42c0-.68-.26-1.25-1-1.24a1.09,1.09,0,0,0-1,.79,1.3,1.3,0,0,0-.05.36l0,2.53h-.76Z" transform="translate(-216.48 52.43)"/><path class="cls-4" d="M495.58,214.31l.57,2.14c.12.47.24.9.32,1.34h0c.09-.43.22-.88.36-1.34l.67-2.15h.65l.66,2.1c.16.51.29,1,.39,1.38h0a12.09,12.09,0,0,1,.32-1.37l.58-2.12h.76l-1.33,4.22h-.7l-.65-2c-.15-.47-.28-.89-.39-1.39h0a13.57,13.57,0,0,1-.38,1.4l-.66,2h-.7l-1.3-4.2Z" transform="translate(-216.48 52.43)"/><path class="cls-4" d="M504,218.46l-.06-.53h0a1.58,1.58,0,0,1-1.28.64,1.21,1.21,0,0,1-1.3-1.2c0-1,.9-1.58,2.52-1.59v-.08a.86.86,0,0,0-1-1,2.15,2.15,0,0,0-1.1.32l-.17-.5a2.64,2.64,0,0,1,1.38-.39c1.28,0,1.6.87,1.61,1.71v1.58a5.24,5.24,0,0,0,.08,1Zm-.13-2.15c-.83,0-1.78.15-1.77,1a.67.67,0,0,0,.72.72,1,1,0,0,0,1-.71,1.09,1.09,0,0,0,0-.25Z" transform="translate(-216.48 52.43)"/><path class="cls-4" d="M505.82,212.27h.77l0,6.17h-.76Z" transform="translate(-216.48 52.43)"/><path class="cls-4" d="M508.66,216.15h0c.1-.15.25-.33.37-.48l1.22-1.46h.92l-1.61,1.74,1.87,2.47h-.93l-1.47-2-.39.43v1.59h-.75l-.05-6.17h.76Z" transform="translate(-216.48 52.43)"/></svg>